<svg width="44" height="44" viewBox="0 0 44 44" fill="none" xmlns="http://www.w3.org/2000/svg">
<path d="M24.4592 7.33341C24.0539 8.48027 23.8333 9.71442 23.8333 11.0001H9.16667V36.6667H34.8333V22.0001C36.1191 22.0001 37.3531 21.7795 38.5 21.3742V38.5001C38.5 39.5126 37.6792 40.3334 36.6667 40.3334H7.33333C6.32082 40.3334 5.5 39.5126 5.5 38.5001V9.16675C5.5 8.15423 6.32082 7.33341 7.33333 7.33341H24.4592ZM34.8333 14.6667C36.8584 14.6667 38.5 13.0251 38.5 11.0001C38.5 8.97504 36.8584 7.33341 34.8333 7.33341C32.8082 7.33341 31.1667 8.97504 31.1667 11.0001C31.1667 13.0251 32.8082 14.6667 34.8333 14.6667ZM34.8333 18.3334C30.7833 18.3334 27.5 15.0502 27.5 11.0001C27.5 6.94999 30.7833 3.66675 34.8333 3.66675C38.8834 3.66675 42.1667 6.94999 42.1667 11.0001C42.1667 15.0502 38.8834 18.3334 34.8333 18.3334Z" fill="#333333"/>
</svg>
