<svg width="44" height="44" viewBox="0 0 44 44" fill="none" xmlns="http://www.w3.org/2000/svg">
<path d="M12.833 12.8334V5.50008C12.833 4.48757 13.6538 3.66675 14.6663 3.66675H38.4996C39.5122 3.66675 40.333 4.48757 40.333 5.50008V29.3334C40.333 30.346 39.5122 31.1667 38.4996 31.1667H31.1667V38.4863C31.1667 39.5064 30.3435 40.3334 29.3196 40.3334H5.51335C4.49325 40.3334 3.66667 39.5104 3.66667 38.4863L3.67173 14.6805C3.67195 13.6604 4.49497 12.8334 5.5188 12.8334H12.833ZM16.4996 12.8334H29.32C30.3398 12.8334 31.1667 13.6564 31.1667 14.6805V27.5001H36.6663V7.33341H16.4996V12.8334ZM27.5 16.5001H7.33801L7.33372 36.6667H27.5V16.5001ZM15.5878 33.0001L9.10597 26.5183L11.6987 23.9256L15.5878 27.8147L23.366 20.0364L25.9587 22.6291L15.5878 33.0001Z" fill="#333333"/>
</svg>
