<svg width="34" height="34" viewBox="0 0 34 34" fill="none" xmlns="http://www.w3.org/2000/svg">
<path d="M29.75 29.75H4.25001C3.46761 29.75 2.83334 29.1158 2.83334 28.3333V17.6896C2.83334 17.2802 3.01044 16.8908 3.31901 16.6217L8.50001 12.1045V5.66667C8.50001 4.88427 9.13428 4.25 9.91668 4.25H29.75C30.5324 4.25 31.1667 4.88427 31.1667 5.66667V28.3333C31.1667 29.1158 30.5324 29.75 29.75 29.75ZM12.75 26.9167H17V18.3339L11.3333 13.3932L5.66668 18.3339V26.9167H9.91668V21.25H12.75V26.9167ZM19.8333 26.9167H28.3333V7.08333H11.3333V10.097C11.6655 10.097 11.9976 10.2133 12.2643 10.4459L19.3477 16.6217C19.6563 16.8908 19.8333 17.2802 19.8333 17.6896V26.9167ZM22.6667 15.5833H25.5V18.4167H22.6667V15.5833ZM22.6667 21.25H25.5V24.0833H22.6667V21.25ZM22.6667 9.91667H25.5V12.75H22.6667V9.91667ZM17 9.91667H19.8333V12.75H17V9.91667Z" fill="#555555"/>
</svg>
