<svg width="44" height="44" viewBox="0 0 44 44" fill="none" xmlns="http://www.w3.org/2000/svg">
<path d="M9.16667 22.9167C9.16667 23.4912 10.0119 24.4904 11.9725 25.4707C14.5091 26.739 18.1074 27.5 22 27.5C25.8925 27.5 29.4908 26.739 32.0274 25.4707C33.9882 24.4904 34.8333 23.4912 34.8333 22.9167V18.9359C31.8083 20.805 27.1834 22 22 22C16.8167 22 12.1916 20.805 9.16667 18.9359V22.9167ZM34.8333 28.1026C31.8083 29.9717 27.1834 31.1667 22 31.1667C16.8167 31.1667 12.1916 29.9717 9.16667 28.1026V32.0833C9.16667 32.6579 10.0119 33.6571 11.9725 34.6374C14.5091 35.9056 18.1074 36.6667 22 36.6667C25.8925 36.6667 29.4908 35.9056 32.0274 34.6374C33.9882 33.6571 34.8333 32.6579 34.8333 32.0833V28.1026ZM5.5 32.0833V13.75C5.5 9.19365 12.8873 5.5 22 5.5C31.1128 5.5 38.5 9.19365 38.5 13.75V32.0833C38.5 36.6397 31.1128 40.3333 22 40.3333C12.8873 40.3333 5.5 36.6397 5.5 32.0833ZM22 18.3333C25.8925 18.3333 29.4908 17.5724 32.0274 16.3041C33.9882 15.3237 34.8333 14.3246 34.8333 13.75C34.8333 13.1754 33.9882 12.1763 32.0274 11.1959C29.4908 9.92765 25.8925 9.16667 22 9.16667C18.1074 9.16667 14.5091 9.92765 11.9725 11.1959C10.0119 12.1763 9.16667 13.1754 9.16667 13.75C9.16667 14.3246 10.0119 15.3237 11.9725 16.3041C14.5091 17.5724 18.1074 18.3333 22 18.3333Z" fill="#333333"/>
</svg>
