<svg width="101" height="55" viewBox="0 0 101 55" fill="none" xmlns="http://www.w3.org/2000/svg">
<g clip-path="url(#clip0_28_1207)">
<path d="M86.1319 55C85.8335 55 85.5244 54.9893 85.162 54.9645H47.3257C46.3913 55.0107 45.4818 55.0107 44.5439 54.9645H21.231C20.8189 54.9893 20.4458 55 20.087 55C9.00967 55 0 45.9972 0 34.9284C0 23.8595 9.00967 14.8567 20.087 14.8567C20.5418 14.8567 21.0036 14.8745 21.469 14.9064C26.1693 5.80423 35.6195 0 45.933 0C55.0741 0 63.6539 4.60079 68.7449 12.1232C71.1181 11.0831 73.701 10.5399 76.3051 10.5399C86.3309 10.5399 94.5554 18.4174 95.1061 28.3005C98.8151 31.105 101 35.4573 101 40.1433C101 48.3367 94.328 55 86.1319 55ZM47.2262 51.056H85.361C85.6629 51.0808 85.9081 51.0915 86.1319 51.0915C92.1715 51.0915 97.0885 46.1783 97.0885 40.1433C97.0885 36.4336 95.2268 33.0043 92.1111 30.9701L91.2265 30.3915V29.3336C91.2158 21.126 84.5225 14.4485 76.3087 14.4485C73.7472 14.4485 71.2212 15.1088 68.9972 16.3619L67.3167 17.3098L66.3469 15.6448C62.1262 8.40638 54.3032 3.90854 45.9365 3.90854C36.6817 3.90854 28.2334 9.36133 24.4178 17.7961L23.8138 19.1309L22.3643 18.925C21.5969 18.8185 20.8331 18.7617 20.0906 18.7617C11.1733 18.7617 3.91509 26.0108 3.91509 34.9213C3.91509 43.8317 11.1697 51.0844 20.0906 51.0844C20.3855 51.0844 20.7016 51.0737 21.0605 51.0524H21.1777H44.7002C45.5351 51.095 46.3416 51.095 47.18 51.0524H47.2297L47.2262 51.056Z" fill="white"/>
<path d="M12.2781 29.8057H15.7811V30.9062C16.4703 29.9832 17.3336 29.5288 18.6162 29.5288C20.0728 29.5288 21.2736 30.1181 22.041 31.1796C22.9078 30.0791 24.1264 29.5288 25.8779 29.5288C28.5353 29.5288 30.3046 31.4565 30.3046 34.6621V41.3254H26.8016V35.2514C26.8016 33.5012 26.1337 32.5392 24.8547 32.5392C23.7143 32.5392 23.1032 33.4444 23.0428 35.0739V41.3254H19.5399V35.2514C19.5399 33.5012 18.872 32.5392 17.593 32.5392C16.4526 32.5392 15.8415 33.4444 15.7811 35.0739V41.3254H12.2781V29.8057Z" fill="white"/>
<path d="M31.9744 25.3043H38.9412C42.501 25.3043 44.5083 27.1539 44.5083 30.0826C44.5083 31.2222 43.7409 32.5215 42.6396 32.9332C44.1744 33.4231 45.2579 34.9177 45.2579 36.4726C45.2579 39.4404 43.1334 41.329 39.531 41.329H31.9744V25.3043ZM38.7814 31.7937C40.1385 31.7937 40.9272 31.2044 40.9272 30.0826C40.9272 28.9608 40.142 28.3538 38.7814 28.3538H35.5555V31.7937H38.7814ZM39.3711 38.2831C40.7886 38.2831 41.6733 37.6547 41.6733 36.4761C41.6733 35.2975 40.7886 34.6692 39.3711 34.6692H35.5555V38.2866H39.3711V38.2831Z" fill="white"/>
<path d="M45.8832 35.5674C45.8832 32.0671 48.1854 29.5324 51.4894 29.5324C53.0029 29.5324 54.1078 30.0649 54.7934 30.9879V29.8093H58.2964V41.329H54.7934V40.1504C54.1042 41.0734 53.0029 41.6059 51.4894 41.6059C48.1854 41.6059 45.8832 39.0712 45.8832 35.5709V35.5674ZM54.8538 35.5674C54.8538 33.7959 53.7525 32.5215 52.0401 32.5215C50.3277 32.5215 49.3045 33.7995 49.3045 35.5674C49.3045 37.3353 50.3668 38.6133 52.0401 38.6133C53.7134 38.6133 54.8538 37.3353 54.8538 35.5674Z" fill="white"/>
<path d="M59.5576 35.5674C59.5576 32.0671 61.8598 29.5324 65.1638 29.5324C66.6772 29.5324 67.7821 30.0649 68.4678 30.9879V29.8093H71.9708V41.329H68.4678V40.1504C67.7786 41.0734 66.6772 41.6059 65.1638 41.6059C61.8598 41.6059 59.5576 39.0712 59.5576 35.5709V35.5674ZM68.5282 35.5674C68.5282 33.7959 67.4269 32.5215 65.7145 32.5215C64.0021 32.5215 62.9789 33.7995 62.9789 35.5674C62.9789 37.3353 64.0411 38.6133 65.7145 38.6133C67.3878 38.6133 68.5282 37.3353 68.5282 35.5674Z" fill="white"/>
<path d="M86.5902 30.1394H82.8918C82.6751 28.7443 81.6342 27.8994 79.9217 27.8994C78.2093 27.8994 77.3247 28.5668 77.3247 29.5288C77.3247 30.7287 78.5646 31.1405 81.691 31.7902C85.3894 32.557 86.6506 34.3852 86.6506 36.785C86.6506 39.8522 83.7587 41.7195 80.1775 41.7195C76.2234 41.7195 73.3315 39.5753 73.1716 36.1566H76.8522C77.0476 37.6902 78.387 38.7126 80.4333 38.7126C81.8899 38.7126 82.97 37.9849 82.97 36.9412C82.97 35.6632 81.89 35.152 79.0336 34.6231C75.5519 33.9734 73.6619 32.5392 73.6619 29.5288C73.6619 26.5184 76.536 24.9103 80.1562 24.9103C83.7764 24.9103 86.4125 27.0935 86.5902 30.1394Z" fill="white"/>
</g>
<defs>
<clipPath id="clip0_28_1207">
<rect width="101" height="55" fill="white"/>
</clipPath>
</defs>
</svg>
