<svg width="101" height="55" viewBox="0 0 101 55" fill="none" xmlns="http://www.w3.org/2000/svg">
<g clip-path="url(#clip0_28_1348)">
<path d="M86.1319 55C85.8335 55 85.5244 54.9893 85.162 54.9645H47.3257C46.3913 55.0107 45.4818 55.0107 44.5439 54.9645H21.231C20.8189 54.9893 20.4458 55 20.087 55C9.00967 55 0 45.9972 0 34.9284C0 23.8595 9.00967 14.8567 20.087 14.8567C20.5418 14.8567 21.0036 14.8745 21.469 14.9064C26.1693 5.80423 35.6195 0 45.933 0C55.0741 0 63.6539 4.60079 68.7449 12.1232C71.1181 11.0831 73.701 10.5399 76.3051 10.5399C86.3309 10.5399 94.5554 18.4174 95.1061 28.3005C98.8151 31.105 101 35.4573 101 40.1433C101 48.3367 94.328 55 86.1319 55ZM47.2262 51.056H85.361C85.6629 51.0808 85.9081 51.0915 86.1319 51.0915C92.1715 51.0915 97.0885 46.1783 97.0885 40.1433C97.0885 36.4336 95.2268 33.0043 92.1111 30.9701L91.2265 30.3915V29.3336C91.2158 21.126 84.5225 14.4485 76.3087 14.4485C73.7472 14.4485 71.2212 15.1088 68.9972 16.3619L67.3167 17.3098L66.3469 15.6448C62.1262 8.40638 54.3032 3.90854 45.9365 3.90854C36.6817 3.90854 28.2334 9.36133 24.4178 17.7961L23.8138 19.1309L22.3643 18.925C21.5969 18.8185 20.8331 18.7617 20.0906 18.7617C11.1733 18.7617 3.91509 26.0108 3.91509 34.9213C3.91509 43.8317 11.1697 51.0844 20.0906 51.0844C20.3855 51.0844 20.7016 51.0737 21.0605 51.0524H21.1777H44.7002C45.5351 51.095 46.3416 51.095 47.18 51.0524H47.2297L47.2262 51.056Z" fill="#999999"/>
<path d="M12.2781 29.8057H15.7811V30.9062C16.4703 29.9832 17.3336 29.5288 18.6162 29.5288C20.0728 29.5288 21.2736 30.1181 22.041 31.1796C22.9078 30.0791 24.1264 29.5288 25.8779 29.5288C28.5353 29.5288 30.3046 31.4565 30.3046 34.6621V41.3254H26.8016V35.2514C26.8016 33.5012 26.1337 32.5392 24.8547 32.5392C23.7143 32.5392 23.1032 33.4444 23.0428 35.0739V41.3254H19.5399V35.2514C19.5399 33.5012 18.872 32.5392 17.593 32.5392C16.4526 32.5392 15.8415 33.4444 15.7811 35.0739V41.3254H12.2781V29.8057Z" fill="#999999"/>
<path d="M31.9744 25.3042H38.9412C42.501 25.3042 44.5083 27.1537 44.5083 30.0825C44.5083 31.222 43.7409 32.5213 42.6396 32.9331C44.1744 33.423 45.2579 34.9176 45.2579 36.4725C45.2579 39.4403 43.1334 41.3289 39.531 41.3289H31.9744V25.3042ZM38.7814 31.7936C40.1385 31.7936 40.9272 31.2043 40.9272 30.0825C40.9272 28.9607 40.142 28.3536 38.7814 28.3536H35.5555V31.7936H38.7814ZM39.3711 38.283C40.7886 38.283 41.6733 37.6546 41.6733 36.476C41.6733 35.2974 40.7886 34.6691 39.3711 34.6691H35.5555V38.2865H39.3711V38.283Z" fill="#999999"/>
<path d="M45.8832 35.5672C45.8832 32.0669 48.1854 29.5322 51.4894 29.5322C53.0029 29.5322 54.1078 30.0647 54.7934 30.9877V29.8091H58.2964V41.3288H54.7934V40.1502C54.1042 41.0732 53.0029 41.6057 51.4894 41.6057C48.1854 41.6057 45.8832 39.071 45.8832 35.5708V35.5672ZM54.8538 35.5672C54.8538 33.7958 53.7525 32.5213 52.0401 32.5213C50.3277 32.5213 49.3045 33.7993 49.3045 35.5672C49.3045 37.3351 50.3668 38.6131 52.0401 38.6131C53.7134 38.6131 54.8538 37.3351 54.8538 35.5672Z" fill="#999999"/>
<path d="M59.5576 35.5672C59.5576 32.0669 61.8598 29.5322 65.1638 29.5322C66.6772 29.5322 67.7821 30.0647 68.4678 30.9877V29.8091H71.9708V41.3288H68.4678V40.1502C67.7786 41.0732 66.6772 41.6057 65.1638 41.6057C61.8598 41.6057 59.5576 39.071 59.5576 35.5708V35.5672ZM68.5282 35.5672C68.5282 33.7958 67.4269 32.5213 65.7145 32.5213C64.0021 32.5213 62.9789 33.7993 62.9789 35.5672C62.9789 37.3351 64.0411 38.6131 65.7145 38.6131C67.3878 38.6131 68.5282 37.3351 68.5282 35.5672Z" fill="#999999"/>
<path d="M86.5902 30.1393H82.8918C82.6751 28.7441 81.6342 27.8992 79.9217 27.8992C78.2093 27.8992 77.3247 28.5666 77.3247 29.5287C77.3247 30.7286 78.5646 31.1404 81.691 31.79C85.3894 32.5568 86.6506 34.3851 86.6506 36.7849C86.6506 39.8521 83.7587 41.7194 80.1775 41.7194C76.2234 41.7194 73.3315 39.5752 73.1716 36.1565H76.8522C77.0476 37.6901 78.387 38.7125 80.4333 38.7125C81.8899 38.7125 82.97 37.9848 82.97 36.9411C82.97 35.6631 81.89 35.1519 79.0336 34.6229C75.5519 33.9733 73.6619 32.5391 73.6619 29.5287C73.6619 26.5183 76.536 24.9102 80.1562 24.9102C83.7764 24.9102 86.4125 27.0934 86.5902 30.1393Z" fill="#999999"/>
</g>
<defs>
<clipPath id="clip0_28_1348">
<rect width="101" height="55" fill="white"/>
</clipPath>
</defs>
</svg>
