<svg width="44" height="44" viewBox="0 0 44 44" fill="none" xmlns="http://www.w3.org/2000/svg">
<path d="M22 3.66675C29.0877 3.66675 34.8333 9.41243 34.8333 16.5001C34.8333 16.7082 34.8284 16.9151 34.8187 17.1208C39.0986 18.6267 42.1667 22.7052 42.1667 27.5001C42.1667 33.5752 37.2418 38.5001 31.1667 38.5001H12.8333C6.7582 38.5001 1.83333 33.5752 1.83333 27.5001C1.83333 22.7052 4.90134 18.6267 9.18141 17.1208C9.17162 16.9151 9.16667 16.7082 9.16667 16.5001C9.16667 9.41243 14.9124 3.66675 22 3.66675ZM22 7.33341C16.9374 7.33341 12.8333 11.4375 12.8333 16.5001C12.8333 16.6494 12.8369 16.7982 12.8439 16.9464L12.9738 19.6734L10.3984 20.5796C7.48807 21.6035 5.5 24.3631 5.5 27.5001C5.5 31.5501 8.78324 34.8334 12.8333 34.8334H31.1667C35.2167 34.8334 38.5 31.5501 38.5 27.5001C38.5 23.4484 35.2183 20.1667 31.1667 20.1667C27.9272 20.1667 25.1784 22.2672 24.2077 25.1804L20.7284 24.0206C22.1842 19.6507 26.3083 16.5001 31.1667 16.5001C31.1667 11.4375 27.0626 7.33341 22 7.33341Z" fill="#333333"/>
</svg>
