<svg width="34" height="34" viewBox="0 0 34 34" fill="none" xmlns="http://www.w3.org/2000/svg">
<path d="M29.75 28.3335H32.5833V31.1668H1.41666V28.3335H4.24999V4.25016C4.24999 3.46777 4.88426 2.8335 5.66666 2.8335H28.3333C29.1157 2.8335 29.75 3.46777 29.75 4.25016V28.3335ZM26.9167 28.3335V5.66683H7.08332V28.3335H26.9167ZM11.3333 15.5835H15.5833V18.4168H11.3333V15.5835ZM11.3333 9.91683H15.5833V12.7502H11.3333V9.91683ZM11.3333 21.2502H15.5833V24.0835H11.3333V21.2502ZM18.4167 21.2502H22.6667V24.0835H18.4167V21.2502ZM18.4167 15.5835H22.6667V18.4168H18.4167V15.5835ZM18.4167 9.91683H22.6667V12.7502H18.4167V9.91683Z" fill="#555555"/>
</svg>
